<?xml version="1.0" encoding="UTF-8" standalone="no"?>
<svg
   xmlns:dc="http://purl.org/dc/elements/1.1/"
   xmlns:cc="http://creativecommons.org/ns#"
   xmlns:rdf="http://www.w3.org/1999/02/22-rdf-syntax-ns#"
   xmlns:svg="http://www.w3.org/2000/svg"
   xmlns="http://www.w3.org/2000/svg"
   xmlns:sodipodi="http://sodipodi.sourceforge.net/DTD/sodipodi-0.dtd"
   xmlns:inkscape="http://www.inkscape.org/namespaces/inkscape"
   version="1.1"
   id="svg2"
   xml:space="preserve"
   width="1584"
   height="1032"
   viewBox="0 0 1584 1032"
   sodipodi:docname="WM3 New Logo_v0.016_12-18-21_0025h.ai"><metadata
     id="metadata8"><rdf:RDF><cc:Work
         rdf:about=""><dc:format>image/svg+xml</dc:format><dc:type
           rdf:resource="http://purl.org/dc/dcmitype/StillImage" /></cc:Work></rdf:RDF></metadata><defs
     id="defs6" /><sodipodi:namedview
     pagecolor="#ffffff"
     bordercolor="#666666"
     borderopacity="1"
     objecttolerance="10"
     gridtolerance="10"
     guidetolerance="10"
     inkscape:pageopacity="0"
     inkscape:pageshadow="2"
     inkscape:window-width="640"
     inkscape:window-height="480"
     id="namedview4" /><g
     id="g10"
     inkscape:groupmode="layer"
     inkscape:label="WM3 New Logo_v0.016_12-18-21_0025h"
     transform="matrix(1.3333333,0,0,-1.3333333,0,1032)"><g
       id="g12"
       transform="translate(359.9991,773.9991)"><path
         d="m 0,0 -35.999,-35.999 v -432 l -144,144 -144,-144 v 342 l -36,36 v -423 h 36 l 144,144 144,-144 h 36 L 0.001,0 Z"
         style="fill:#ffffff;fill-opacity:1;fill-rule:nonzero;stroke:none"
         id="path14" /></g><g
       id="g16"
       transform="translate(738,513)"><path
         d="M 0,0 -144,-144 -288,0 h -36 v -252 h 36 V -45 L -144,-189 0,-45 v -432 l 36,-36 V 0 Z"
         style="fill:#ffffff;fill-opacity:1;fill-rule:nonzero;stroke:none"
         id="path18" /></g><g
       id="g20"
       transform="translate(1035,450)"><path
         d="m 0,0 153,-153 v -36 h -360 l 36,36 H 108 L -45,0 108,153 h -279 l -36,36 h 360 v -36 z"
         style="fill:#ffffff;fill-opacity:1;fill-rule:nonzero;stroke:none"
         id="path22" /></g></g></svg>
